<svg xmlns="http://www.w3.org/2000/svg" width="340" height="176" viewBox="0 0 340 176">
  <g id="Group_7434" data-name="Group 7434" transform="translate(-4576 -13788)">
    <rect id="Rectangle_6409" data-name="Rectangle 6409" width="340" height="176" transform="translate(4576 13788)" fill="#8d33ff"/>
    <g id="Group_7443" data-name="Group 7443" transform="translate(-1051.734 9760.064)">
      <path id="Stroke_1" data-name="Stroke 1" d="M35.689,13.461v-2.72A10.742,10.742,0,0,0,24.948,0H10.738A10.741,10.741,0,0,0,0,10.741V43.183A10.741,10.741,0,0,0,10.738,53.925H24.977A10.712,10.712,0,0,0,35.689,43.216V40.467" transform="translate(5770.771 4143.682) rotate(-90)" fill="none" stroke="#fff" stroke-linecap="round" stroke-linejoin="round" stroke-miterlimit="10" stroke-width="4"/>
      <path id="Stroke_3" data-name="Stroke 3" d="M35.1,0H0" transform="translate(5797.734 4123.288) rotate(-90)" fill="none" stroke="#fff" stroke-linecap="round" stroke-linejoin="round" stroke-miterlimit="10" stroke-width="4"/>
      <path id="Stroke_5" data-name="Stroke 5" d="M0,0,8.535,8.5,0,17" transform="translate(5789.237 4096.727) rotate(-90)" fill="none" stroke="#fff" stroke-linecap="round" stroke-linejoin="round" stroke-miterlimit="10" stroke-width="4"/>
    </g>
  </g>
</svg>
